<?xml version="1.0" encoding="UTF-8"?>
<svg id="Layer_1" xmlns="http://www.w3.org/2000/svg" version="1.1" viewBox="0 0 32 32" xmlns:c2pa="http://c2pa.org/manifest"><metadata><c2pa:manifest>AAAWgmp1bWIAAAAeanVtZGMycGEAEQAQgAAAqgA4m3EDYzJwYQAAABZcanVtYgAAAEdqdW1kYzJtYQARABCAAACqADibcQN1cm46YzJwYToxN2Y3ZjJkOC0yOGJlLTQ4YWYtYTVhMi01NmUyNWI0YzQ3OTYAAAADl2p1bWIAAAApanVtZGMyYXMAEQAQgAAAqgA4m3EDYzJwYS5hc3NlcnRpb25zAAAAALxqdW1iAAAARGp1bWRjYm9yABEAEIAAAKoAOJtxE2MycGEuaW5ncmVkaWVudC52MwAAAAAYYzJzaHyLCVPXVWzHXg/B2JTlH60AAABwY2JvcqNpZGM6Zm9ybWF0bWltYWdlL3N2Zyt4bWxqaW5zdGFuY2VJRHgseG1wOmlpZDo4ZjZlNzNiYi03ZGFiLTQ3NjQtOThhOC02ZWZmMDM4NjgwMWFscmVsYXRpb25zaGlwaHBhcmVudE9mAAAB4mp1bWIAAABBanVtZGNib3IAEQAQgAAAqgA4m3ETYzJwYS5hY3Rpb25zLnYyAAAAABhjMnNo+90OKr7ixDz9ibUfaecTCgAAAZljYm9yomdhY3Rpb25zgqJmYWN0aW9ua2MycGEub3BlbmVkanBhcmFtZXRlcnOha2luZ3JlZGllbnRzgaJjdXJseC1zZWxmI2p1bWJmPWMycGEuYXNzZXJ0aW9ucy9jMnBhLmluZ3JlZGllbnQudjNkaGFzaFggCx/Xd4sjTLJmKfDwwD1Cq2HV3ZOrvaaUPvA90JcqMRWkZmFjdGlvbngdY29tLmFudGhyb3BpYy5jbGF1ZGUucHJvdmlkZWRqcGFyYW1ldGVyc6F4H2NvbS5hbnRocm9waWMub3JpZ2luLWNvbmZpZGVuY2VndW5rbm93bmtkZXNjcmlwdGlvbnhmQ2xhdWRlIHByb3ZpZGVkIHRoaXMgZmlsZSBhdCB0aGUgcmVxdWVzdCBvZiBhIHVzZXIgYW5kIG1heSBoYXZlIGNyZWF0ZWQgb3IgbW9kaWZpZWQgdGhlIGZpbGUgY29udGVudHMubXNvZnR3YXJlQWdlbnShZG5hbWVmQ2xhdWRlcmFsbEFjdGlvbnNJbmNsdWRlZPUAAADIanVtYgAAAEBqdW1kY2JvcgARABCAAACqADibcRNjMnBhLmhhc2guZGF0YQAAAAAYYzJzaFvmmTrmgflORB2fw0mwYx4AAACAY2JvcqVjYWxnZnNoYTI1NmNwYWRNAAAAAAAAAAAAAAAAAGRoYXNoWCBdbT/swRs7RoHvozUiMQJ5jSMZ6/7FpyZ3hWYA+oEL0WRuYW1lbmp1bWJmIG1hbmlmZXN0amV4Y2x1c2lvbnOBomVzdGFydBi9Zmxlbmd0aBkeBAAAAj5qdW1iAAAAJ2p1bWRjMmNsABEAEIAAAKoAOJtxA2MycGEuY2xhaW0udjIAAAACD2Nib3KlY2FsZ2ZzaGEyNTZpc2lnbmF0dXJleE1zZWxmI2p1bWJmPS9jMnBhL3VybjpjMnBhOjE3ZjdmMmQ4LTI4YmUtNDhhZi1hNWEyLTU2ZTI1YjRjNDc5Ni9jMnBhLnNpZ25hdHVyZWppbnN0YW5jZUlEeCx4bXA6aWlkOmMyZTRkY2M5LWUxYjgtNDU3OC05NzM0LWNkMWYzOThiMzM5N3JjcmVhdGVkX2Fzc2VydGlvbnODomN1cmx4LXNlbGYjanVtYmY9YzJwYS5hc3NlcnRpb25zL2MycGEuaW5ncmVkaWVudC52M2RoYXNoWCALH9d3iyNMsmYp8PDAPUKrYdXdk6u9ppQ+8D3QlyoxFaJjdXJseCpzZWxmI2p1bWJmPWMycGEuYXNzZXJ0aW9ucy9jMnBhLmFjdGlvbnMudjJkaGFzaFggiD20P/aHlgF8mNxR4vGcTIRePoVF7j3WTsw1h3q9XCuiY3VybHgpc2VsZiNqdW1iZj1jMnBhLmFzc2VydGlvbnMvYzJwYS5oYXNoLmRhdGFkaGFzaFggy+d3RaUMWHkSQhxq0LjOlwmahBWdVi3uXHB+2ERhhrh0Y2xhaW1fZ2VuZXJhdG9yX2luZm+jZG5hbWVvQW50aHJvcGljIEZpbGVzZ3ZlcnNpb25lMS4wLjBrc3BlY1ZlcnNpb25lMi40LjAAABA4anVtYgAAAChqdW1kYzJjcwARABCAAACqADibcQNjMnBhLnNpZ25hdHVyZQAAABAIY2JvctKEWQISogEmGCFZAgowggIGMIIBjaADAgECAhRA5aAK7sI50L64g/oGQgU9Z1UTADAKBggqhkjOPQQDAzBJMRcwFQYDVQQKEw5BbnRocm9waWMsIFBCQzEuMCwGA1UEAxMlQW50aHJvcGljIENvbnRlbnQgQ3JlZGVudGlhbHMgUm9vdCBDQTAeFw0yNjA4MDcxODQzNTZaFw0yODA4MDYxOTQzNTZaMEQxFzAVBgNVBAoTDkFudGhyb3BpYywgUEJDMSkwJwYDVQQDEyBBbnRocm9waWMgQ2xhdWRlIENvbnRlbnQgU2lnbmluZzBZMBMGByqGSM49AgEGCCqGSM49AwEHA0IABJh6CmvLUBgFFNU0vUKlOVtE6djd17L5SuwX0LemFisBM3dkd/3cyjxFA3Qo5S46fX0/ihY0VZ7mfb9KF703t5OjWDBWMA4GA1UdDwEB/wQEAwIHgDAVBgNVHSUEDjAMBgorBgEEAYPoXgIBMAwGA1UdEwEB/wQCMAAwHwYDVR0jBBgwFoAUzlHiBIFOZFsj+OPEz5o+nMHXXMIwCgYIKoZIzj0EAwMDZwAwZAIwMXMdFJ4BetLLVY7ORuE9noqbbAZOZn/aArXyTwFAZfKrPzxF2vPoJNf1+UCdg1XGAjBwX1zd9WGqYkqmL5SFqw1QySjr1zJfpJM9+1rdDwSPLMOPOjKuiXjoU/pUUeG9RwmhY3BhZFkNngAAAAAAAAAAAAAAAAAAAAAAAAAAAAAAAAAAAAAAAAAAAAAAAAAAAAAAAAAAAAAAAAAAAAAAAAAAAAAAAAAAAAAAAAAAAAAAAAAAAAAAAAAAAAAAAAAAAAAAAAAAAAAAAAAAAAAAAAAAAAAAAAAAAAAAAAAAAAAAAAAAAAAAAAAAAAAAAAAAAAAAAAAAAAAAAAAAAAAAAAAAAAAAAAAAAAAAAAAAAAAAAAAAAAAAAAAAAAAAAAAAAAAAAAAAAAAAAAAAAAAAAAAAAAAAAAAAAAAAAAAAAAAAAAAAAAAAAAAAAAAAAAAAAAAAAAAAAAAAAAAAAAAAAAAAAAAAAAAAAAAAAAAAAAAAAAAAAAAAAAAAAAAAAAAAAAAAAAAAAAAAAAAAAAAAAAAAAAAAAAAAAAAAAAAAAAAAAAAAAAAAAAAAAAAAAAAAAAAAAAAAAAAAAAAAAAAAAAAAAAAAAAAAAAAAAAAAAAAAAAAAAAAAAAAAAAAAAAAAAAAAAAAAAAAAAAAAAAAAAAAAAAAAAAAAAAAAAAAAAAAAAAAAAAAAAAAAAAAAAAAAAAAAAAAAAAAAAAAAAAAAAAAAAAAAAAAAAAAAAAAAAAAAAAAAAAAAAAAAAAAAAAAAAAAAAAAAAAAAAAAAAAAAAAAAAAAAAAAAAAAAAAAAAAAAAAAAAAAAAAAAAAAAAAAAAAAAAAAAAAAAAAAAAAAAAAAAAAAAAAAAAAAAAAAAAAAAAAAAAAAAAAAAAAAAAAAAAAAAAAAAAAAAAAAAAAAAAAAAAAAAAAAAAAAAAAAAAAAAAAAAAAAAAAAAAAAAAAAAAAAAAAAAAAAAAAAAAAAAAAAAAAAAAAAAAAAAAAAAAAAAAAAAAAAAAAAAAAAAAAAAAAAAAAAAAAAAAAAAAAAAAAAAAAAAAAAAAAAAAAAAAAAAAAAAAAAAAAAAAAAAAAAAAAAAAAAAAAAAAAAAAAAAAAAAAAAAAAAAAAAAAAAAAAAAAAAAAAAAAAAAAAAAAAAAAAAAAAAAAAAAAAAAAAAAAAAAAAAAAAAAAAAAAAAAAAAAAAAAAAAAAAAAAAAAAAAAAAAAAAAAAAAAAAAAAAAAAAAAAAAAAAAAAAAAAAAAAAAAAAAAAAAAAAAAAAAAAAAAAAAAAAAAAAAAAAAAAAAAAAAAAAAAAAAAAAAAAAAAAAAAAAAAAAAAAAAAAAAAAAAAAAAAAAAAAAAAAAAAAAAAAAAAAAAAAAAAAAAAAAAAAAAAAAAAAAAAAAAAAAAAAAAAAAAAAAAAAAAAAAAAAAAAAAAAAAAAAAAAAAAAAAAAAAAAAAAAAAAAAAAAAAAAAAAAAAAAAAAAAAAAAAAAAAAAAAAAAAAAAAAAAAAAAAAAAAAAAAAAAAAAAAAAAAAAAAAAAAAAAAAAAAAAAAAAAAAAAAAAAAAAAAAAAAAAAAAAAAAAAAAAAAAAAAAAAAAAAAAAAAAAAAAAAAAAAAAAAAAAAAAAAAAAAAAAAAAAAAAAAAAAAAAAAAAAAAAAAAAAAAAAAAAAAAAAAAAAAAAAAAAAAAAAAAAAAAAAAAAAAAAAAAAAAAAAAAAAAAAAAAAAAAAAAAAAAAAAAAAAAAAAAAAAAAAAAAAAAAAAAAAAAAAAAAAAAAAAAAAAAAAAAAAAAAAAAAAAAAAAAAAAAAAAAAAAAAAAAAAAAAAAAAAAAAAAAAAAAAAAAAAAAAAAAAAAAAAAAAAAAAAAAAAAAAAAAAAAAAAAAAAAAAAAAAAAAAAAAAAAAAAAAAAAAAAAAAAAAAAAAAAAAAAAAAAAAAAAAAAAAAAAAAAAAAAAAAAAAAAAAAAAAAAAAAAAAAAAAAAAAAAAAAAAAAAAAAAAAAAAAAAAAAAAAAAAAAAAAAAAAAAAAAAAAAAAAAAAAAAAAAAAAAAAAAAAAAAAAAAAAAAAAAAAAAAAAAAAAAAAAAAAAAAAAAAAAAAAAAAAAAAAAAAAAAAAAAAAAAAAAAAAAAAAAAAAAAAAAAAAAAAAAAAAAAAAAAAAAAAAAAAAAAAAAAAAAAAAAAAAAAAAAAAAAAAAAAAAAAAAAAAAAAAAAAAAAAAAAAAAAAAAAAAAAAAAAAAAAAAAAAAAAAAAAAAAAAAAAAAAAAAAAAAAAAAAAAAAAAAAAAAAAAAAAAAAAAAAAAAAAAAAAAAAAAAAAAAAAAAAAAAAAAAAAAAAAAAAAAAAAAAAAAAAAAAAAAAAAAAAAAAAAAAAAAAAAAAAAAAAAAAAAAAAAAAAAAAAAAAAAAAAAAAAAAAAAAAAAAAAAAAAAAAAAAAAAAAAAAAAAAAAAAAAAAAAAAAAAAAAAAAAAAAAAAAAAAAAAAAAAAAAAAAAAAAAAAAAAAAAAAAAAAAAAAAAAAAAAAAAAAAAAAAAAAAAAAAAAAAAAAAAAAAAAAAAAAAAAAAAAAAAAAAAAAAAAAAAAAAAAAAAAAAAAAAAAAAAAAAAAAAAAAAAAAAAAAAAAAAAAAAAAAAAAAAAAAAAAAAAAAAAAAAAAAAAAAAAAAAAAAAAAAAAAAAAAAAAAAAAAAAAAAAAAAAAAAAAAAAAAAAAAAAAAAAAAAAAAAAAAAAAAAAAAAAAAAAAAAAAAAAAAAAAAAAAAAAAAAAAAAAAAAAAAAAAAAAAAAAAAAAAAAAAAAAAAAAAAAAAAAAAAAAAAAAAAAAAAAAAAAAAAAAAAAAAAAAAAAAAAAAAAAAAAAAAAAAAAAAAAAAAAAAAAAAAAAAAAAAAAAAAAAAAAAAAAAAAAAAAAAAAAAAAAAAAAAAAAAAAAAAAAAAAAAAAAAAAAAAAAAAAAAAAAAAAAAAAAAAAAAAAAAAAAAAAAAAAAAAAAAAAAAAAAAAAAAAAAAAAAAAAAAAAAAAAAAAAAAAAAAAAAAAAAAAAAAAAAAAAAAAAAAAAAAAAAAAAAAAAAAAAAAAAAAAAAAAAAAAAAAAAAAAAAAAAAAAAAAAAAAAAAAAAAAAAAAAAAAAAAAAAAAAAAAAAAAAAAAAAAAAAAAAAAAAAAAAAAAAAAAAAAAAAAAAAAAAAAAAAAAAAAAAAAAAAAAAAAAAAAAAAAAAAAAAAAAAAAAAAAAAAAAAAAAAAAAAAAAAAAAAAAAAAAAAAAAAAAAAAAAAAAAAAAAAAAAAAAAAAAAAAAAAAAAAAAAAAAAAAAAAAAAAAAAAAAAAAAAAAAAAAAAAAAAAAAAAAAAAAAAAAAAAAAAAAAAAAAAAAAAAAAAAAAAAAAAAAAAAAAAAAAAAAAAAAAAAAAAAAAAAAAAAAAAAAAAAAAAAAAAAAAAAAAAAAAAAAAAAAAAAAAAAAAAAAAAAAAAAAAAAAAAAAAAAAAAAAAAAAAAAAAAAAAAAAAAAAAAAAAAAAAAAAAAAAAAAAAAAAAAAAAAAAAAAAAAAAAAAAAAAAAAAAAAAAAAAAAAAAAAAAAAAAAAAAAAAAAAAAAAAAAAAAAAAAAAAAAAAAAAAAAAAAAAAAAAAAAAAAAAAAAAAAAAAAAAAAAAAAAAAAAAAAAAAAAAAAAAAAAAAAAAAAAAAAAAAAAAAAAAAAAAAAAAAAAAAAAAAAAAAAAAAAAAAAAAAAAAAAAAAAAAAAAAAAAAAAAAAAAAAAAAAAAAAAAAAAAAAAAAAAAAAAAAAAAAAAAAAAAAAAAAAAAAAAAAAAAAAAAAAAAAAAAAAAAAAAAAAAAAAAAAAAAAAAAAAAAAAAAAAAAAAAAAAAAAAAAAAAAAAAAAAAAAAAAAAAAAAAAAAAAAAAAAAAAAAAAAAAAAAAAAAAAAAAAAAAAAAAAAAAAAAAAAAAAAAAAAAAAAAAAAAAAAAAAAAAAAAAAAAAAAAAAAAAAAAAAAAAAAAAAAAAAAAAAAAAAAAAAAAAAAAAAAAAAAAAAAAAAAAAAAAAAAAAAAAAAAAAAAAAAAAAAAAAAAAAAAAAAAAAAAAAAAAAAAAAAAAAAAAAAAAAAAAAAAAAAAAAAAAAAAAAAAAAAAAAAAAAAAAAAAAAAAAAAAAAAAAAAAAAAAAAAAAAAAAAAAAAAAAAAAAAAAAAAAAAAAAAAAAAAAAAAAAAAAAAAAAAAAAAAAAAAAAAAAAAAAAAAAAAAAAAAAAAAAAAAAAAAAAAAAAAAAAAAAAAAAAAAAAAAAAAAAAAAAAAAAAAAAAAAAAAAAAAAAAAAAAAAAAAAAAAAAAAAAAAAAAAAAAAAAAAAAAAAAAAAAAAAAAAAAAAAAAAAAAAAAAAAAAAAAAAAAAAAAAAAAAAAAAAAAAAAAAAAAAAAAAAAAAAAAAAAAAAAAAAAAAAAAAAAAAAAAAAAAAAAAAAAAAAAAAAAAAAAAAAAAAAAAAAAAAAAAAAAAAAAAAAAAAAAAAAAAAAAAAAAAAAAAAAAAAAAAAAAAAAAAAAAAAAAAAAAAAAAAAAAAAAAAAAAAAAAAAAAAAAAAAAAAAAAAAAAAAAAAAAAAAAAAAAAAAAAAAAAAAAAAAAAAAAAAAAAAAAAAAAAAAAAAAAAAAAAAAAAAAAAAAAAAAAAAAAAAAAAAAAAAAAAAAAAAAAAAAAAAAAAAAAAAAAAAAAAAAAAAAAAAAAAAAAAAAAAAAAAAAAAAAAAAAAAAAAAAAAAAAAAAAAAAAAAAAAAAAAAAAAAAAAAAAAAAAAAAAAAAAAAAAAAAAAAAAAAPZYQCoDIqvJKpLoXBarhst9JzOKe+tyJponbfM4p1U3m8ypQn09YVSbwzMytTR5sPa8NsbUC2dLZmi8fvDBaYb0+pk=</c2pa:manifest></metadata>
  <!-- Generator: Adobe Illustrator 29.8.10, SVG Export Plug-In . SVG Version: 2.1.1 Build 2)  -->
  <defs>
    <style>
      .st0 {
        fill: #fff;
      }
    </style>
  </defs>
  <path class="st0" d="M13.4,1.2H2.6v.9h-.8v17h.9v.8h12.2v10.1h.9v.8h13.7v-.8h.9s0-14,0-14h-.8c0-.2,0-.5,0-.7h-.6v-.8h-.8c0,0,0-.1,0-.1v-.7h-.8c-.2-.2,0-.6,0-.8h-.7v-.9h-9.4s0-6.5,0-6.5h-.7v-.7h-.7v-.8h-.8s0-.1,0-.1v-.7h0c-.2,0-.5,0-.7,0,.1-.3,0-.5,0-.8h-.7v-.9ZM22.2,4.7h-3.5c0,0,0,0,0,.1,0,.4,0,.9,0,1.3h2.9s0,.5,0,.5c0,0,.5,0,.6,0v.6h.5v.9h-.9c-.1.2,0,.4,0,.6h0c0,0,.6,0,.6,0v.7h.8v.7h.8v-.7c.3,0,.5-.1.7-.1v-.6c0,0,.7,0,.7,0v-.6h0c0,0-1.1,0-1.1,0v-1.4c-.1-.1-.4,0-.6,0v-.7h-.8v-.7h-.8v-.7ZM8.9,21.3v-.7h0c0,0-.7,0-.7,0v.7h-.7s0,.7,0,.7h-.7v.7h1.1v1.6h.6v.9h.9v.8h.8v.8h3.5v-1.5h-2.9v-.7h-.7v-.7c-.1-.1-.4,0-.6,0v-1.1h.9v-.7h-.7v-.7h0c0,0-.7,0-.7,0Z"/>
  <path d="M13.4,1.2v.9h.7c0,.3.1.5,0,.8.2,0,.5.1.7,0h0v.7s0,.1,0,.1h.8v.8h.7v.7h.7v6.5s9.4,0,9.4,0v.9h.7c.2.2-.1.6,0,.8h.8v.7s0,0,0,.1h.8v.8h.6c0,.2,0,.5,0,.7h.8v13.9s-.8,0-.8,0v.7h0c0,0-13.7,0-13.7,0v-.8h-.9v-10.1H2.7v-.7h0c0,0-.7,0-.7,0V2c0,0,.7,0,.7,0v-.8h10.8ZM12.5,2H2.6v17h12.2v-6.3h.8v-.9h.7v-5.7h-3.7V2ZM14.1,2.9h-.7v2.4h2.3v-.7h-.8v-.8h-.7v-.9ZM15.8,29.8h13.6v-13.1h0c0,0-3.8,0-3.8,0v-4.1s-9.9,0-9.9,0v17.2ZM27.2,14.4v-.8h0c0,0-.6,0-.6,0v2.4h0c0,0,2.1,0,2.1,0,0,0,0,0,.1,0,0-.3,0-.5,0-.7h-.8v-.8h-.8Z"/>
  <path d="M8.9,21.3h.8v.7h0c0,0,.6,0,.6,0v.7h-.9v1.1c.2,0,.4,0,.6,0v.7h.7v.6h2.9v1.5h-3.5c0,0,0-.7,0-.7h-.8v-.8h-.9v-.9h-.6v-1.6h-1.1v-.7h0c0,0,.6,0,.6,0v-.7s.7,0,.7,0v-.7h.7v.7Z"/>
  <path d="M22.2,4.7v.6h0c0,0,.7,0,.7,0v.6h0c0,0,.7,0,.7,0v.7c.2,0,.4,0,.6,0v1.4h1.2v.7h-.7s0,.7,0,.7c-.3,0-.4.2-.7.1v.7h-.8v-.7h-.8v-.7h-.7c0-.3,0-.5,0-.7h.9v-.9h-.5v-.6c0-.1-.6,0-.6,0v-.5c0,0-2.9,0-2.9,0,0-.4,0-.9,0-1.3s0-.1,0-.1h3.5Z"/>
  <path class="st0" d="M15.8,29.8V12.6c-.1,0,9.7,0,9.7,0v4.1h3.9v13.1h0c0,0-13.6,0-13.6,0ZM23,16.8v-1.5h0c0,0-1.2,0-1.2,0v1.5h-3.8v.9h1.9v1.3h.5s0,1,0,1c0,0,.4,0,.5,0v.9h-.9v.6h-.7c0,.1,0,.2,0,.3h-.6v.6h-.7v.9h1.9v-.6h0c0,0,.6,0,.6,0v-.5s1.1,0,1.1,0v-.8h.9v.9h.8v.5h.7v.6h0c0,0,2.1,0,2.1,0h0v-.8h0c0,0-.7,0-.7,0v-.6h-.7c0,0,0-.2,0-.3h-.9v-.6h-.6v-.9h.5v-1c.1-.1.4,0,.5,0v-1.2h1.5v-.9h-2.7ZM26.3,24.5h-8.3v.8h8.3v-.8ZM17.9,27.1h8.4v-.8h0c0,0-8.3,0-8.3,0v.9ZM17.9,28.8h8.4v-.8h0c0,0-8.3,0-8.3,0v.9Z"/>
  <path class="st0" d="M12.5,2v4h3.8v5.7h-.7v.8h0c0,0-.8,0-.8,0v6.3H2.7V2c-.1,0,9.8,0,9.8,0ZM9.4,4.6h-1.7c-.1.4,0,.9,0,1.3s0,.1,0,.1h-.7v1.4h-.7v1.2s-.4,0-.4,0v1h-.4v1.3h0c0,0-.7,0-.7,0v1h2.3v-.8c-.1,0-.6,0-.6,0v-1.4s0,0,0,0h4.2s0,1.5,0,1.5c-.2.1-.4,0-.6,0v.7h0c0,0,2.5,0,2.5,0h0v-1h0c0,0-.8,0-.8,0v-1.3h0s-.7,0-.7,0v-2.2h-.9v-1.4h-.8v-1.5ZM12.6,13.5H4.2v.8h8.5v-.8ZM12.6,16.1v-.8H4.2s0,.8,0,.8h8.5ZM12.6,17.1H4.2v.8h0c0,0,8.4,0,8.4,0h0v-.8Z"/>
  <path class="st0" d="M27.2,14.4h.8v.8h.8c0,.3,0,.5,0,.7,0,0,0,0-.1,0h-2.2v-2.4h.7v.9Z"/>
  <polygon class="st0" points="14.1 2.9 14.1 3.7 14.9 3.7 14.9 4.6 15.7 4.6 15.7 5.3 13.4 5.3 13.4 2.9 14.1 2.9"/>
  <path d="M23,16.8h2.7v.9h-1.5v1.2c-.2,0-.4,0-.5,0v1h-.5v.9h.6v.6h.9c0,.1,0,.2,0,.3h.7v.6h.7v.8h0c0,0-2.1,0-2.1,0h0v-.7h-.7v-.5h-.8v-.8h0c0,0-.8,0-.8,0v.8h-1.1s0,.5,0,.5h-.7v.7h-1.9v-.9h.7v-.6h.7c0,0,0-.2,0-.3h.7v-.6h.9v-.9c0-.1-.5,0-.5,0v-1s-.5,0-.5,0v-1.3h-1.9v-.9h3.8v-1.6h1.2v1.6ZM23.2,17.8h-2.3v.9h.4v.9h.4s0,.5,0,.5h.6v-.4s.4,0,.4,0v-.9c.1-.1.3,0,.5,0v-.8Z"/>
  <polygon points="17.9 27.1 17.9 26.2 26.2 26.2 26.3 26.3 26.3 27 26.2 27.1 17.9 27.1"/>
  <polygon points="17.9 28.8 17.9 27.9 26.2 27.9 26.3 28 26.3 28.7 26.2 28.8 17.9 28.8"/>
  <polygon points="26.3 24.5 26.3 25.3 18 25.3 18 24.6 18 24.5 26.3 24.5"/>
  <path d="M9.4,4.6v1.5h.8v1.4h0c0,0,.8,0,.8,0v2.2h.7s0,0,0,0v1.3h.8v1h0c0,0-2.5,0-2.5,0h0v-.8c.2,0,.5,0,.6,0v-1.5h-4.2s0,0,0,0v1.4c0,.1.5,0,.6,0v.8h-2.3v-1h.8v-1.3h.4v-1h.4s0-1.2,0-1.2h.7v-1.4h.7c0,0,0,0,0-.1,0-.4-.1-.9,0-1.3h1.7ZM9.3,6.1h-1.5v1.4h-.7v1.1h0c0,0,2.8,0,2.8,0v-1.2h-.7v-1.4Z"/>
  <polygon points="12.6 16.1 4.2 16.1 4.2 15.3 12.6 15.3 12.6 16.1"/>
  <rect x="4.2" y="13.5" width="8.5" height=".8"/>
  <polygon points="12.6 17.1 12.6 17.8 12.6 17.9 4.2 17.9 4.2 17.8 4.2 17.1 12.6 17.1"/>
  <path class="st0" d="M23.2,17.8v.8c-.1,0-.3,0-.5,0v.9h-.4s0,.4,0,.4h-.6v-.4s-.5,0-.5,0v-.9h-.4v-.9h2.3Z"/>
  <polygon class="st0" points="9.3 6.1 9.3 7.5 10 7.5 10 8.7 7.2 8.7 7.2 8.6 7.2 7.5 7.8 7.5 7.8 6.1 9.3 6.1"/>
</svg>