<?xml version="1.0" encoding="UTF-8"?>
<svg id="Layer_1" xmlns="http://www.w3.org/2000/svg" version="1.1" viewBox="0 0 32 32">
  <!-- Generator: Adobe Illustrator 29.8.10, SVG Export Plug-In . SVG Version: 2.1.1 Build 2)  -->
  <defs>
    <style>
      .st0 {
        fill: #fff;
      }
    </style>
  </defs>
  <path class="st0" d="M14.5,4.7h-1.6v1.6h-1.7v1.6h-1.6v1.6h0c0,0-1.6,0-1.6,0v1.6h-1.6v1.5h0c0,0-4.9,0-4.9,0v7.7s5,0,5,0v1.7h1.7v1.6h1.6c0,0,0,0,0,.2,0,.5,0,1,0,1.5h1.5s0,0,.2,0v1.6h1.7v1.5h1.6V4.7ZM26.7,7.7v-1.7c0-.1,0,0-.1,0h-1.6v1.7h0c0,0,1.5,0,1.5,0,0,0,0,0,0,0h0v1.7h1.7v-1.7h-1.7ZM20.6,8h0v1.7h0c0,0,1.5,0,1.5,0h0v-1.7h0c0,0-1.5,0-1.5,0ZM30.1,10.8h-1.7v11.9h1.7v-11.9ZM19,11.3h-1.6v1.6h0c0,0,1.5,0,1.5,0v7.6h0c0,0-1.5,0-1.5,0v1.7h1.6v-1.6h1.5v-7.7s0,0-.1,0c-.2,0-.7,0-1,0s-.3.1-.5,0v-1.6ZM24,11.3h-1.6v1.6h0c0,0,1.5,0,1.5,0v7.7h-1.6v1.7h1.6v-1.6h1.5v-7.7s0,0-.1,0c-.2,0-.6,0-.8,0s-.5.1-.6,0v-1.6ZM22.2,23.8h-1.7v1.6h0c0,0,1.5,0,1.5,0h0v-1.7ZM28.4,24.2h-1.7v1.6h-1.6v1.5s0,0,0,.2h1.7v-1.6h1.7v-1.7Z"/>
  <path d="M14.5,4.7v23.9h-1.6v-1.5h-1.7v-1.6c0,0-.1,0-.2,0h-1.5c0-.5.1-1.1,0-1.5s0-.1,0-.2h-1.6v-1.5h0c0,0-1.6,0-1.6,0v-1.7H1.2c0,0,0-7.8,0-7.8h5v-1.6h1.6v-1.6h1.7v-1.6h1.6v-1.5h0c0,0,1.7,0,1.7,0v-1.6h1.6Z"/>
  <polygon points="30.1 10.8 30.1 22.8 28.4 22.8 28.4 10.9 28.5 10.8 30.1 10.8"/>
  <path d="M19,11.3v1.6c.1.1.3,0,.5,0,.3,0,.8,0,1,0s0,0,.1,0v7.7h-1.5v1.6h-1.6v-1.7h1.6v-7.7h-1.6v-1.7h1.6Z"/>
  <path d="M24,11.3v1.6c.2.2.4,0,.6,0s.6,0,.8,0,0,0,.1,0v7.7h-1.5v1.6h-1.6v-1.7h1.6v-7.7h-1.6v-1.7h1.6Z"/>
  <path d="M26.7,7.7h1.7v1.7h-1.7v-1.7h0c0,0,0,0,0,0h-1.6v-1.7h1.6s0,0,.1,0v1.7Z"/>
  <path d="M28.4,24.2v1.7h-1.7v1.6h-1.7c0,0,0-.1,0-.2v-1.5h1.6v-1.6h1.7Z"/>
  <polygon points="20.6 8 22.1 8 22.2 8 22.2 9.6 22.1 9.7 20.6 9.7 20.5 9.6 20.5 8 20.6 8"/>
  <polygon points="22.2 23.8 22.2 25.4 22.1 25.5 20.6 25.5 20.5 25.4 20.5 23.8 22.2 23.8"/>
</svg>